<?xml version="1.0" encoding="UTF-8" standalone="no"?>
<!DOCTYPE svg PUBLIC "-//W3C//DTD SVG 1.1//EN"
 "http://www.w3.org/Graphics/SVG/1.1/DTD/svg11.dtd">
<!-- Generated by graphviz version 2.40.1 (20161225.0304)
 -->
<!-- Title: lexicalParser Pages: 1 -->
<svg width="273pt" height="474pt"
 viewBox="0.00 0.00 273.37 474.00" xmlns="http://www.w3.org/2000/svg" xmlns:xlink="http://www.w3.org/1999/xlink">
<g id="graph0" class="graph" transform="scale(1 1) rotate(0) translate(4 470)">
<title>lexicalParser</title>
<polygon fill="#ffffff" stroke="transparent" points="-4,4 -4,-470 269.368,-470 269.368,4 -4,4"/>
<!-- data -->
<g id="node1" class="node">
<title>data</title>
<ellipse fill="#c1b2ff" stroke="#c1b2ff" cx="189.8441" cy="-448" rx="27" ry="18"/>
<text text-anchor="middle" x="189.8441" y="-443.8" font-family="Times,serif" font-size="14.00" fill="#000000">data</text>
</g>
<!-- selectorStart -->
<g id="node2" class="node">
<title>selectorStart</title>
<ellipse fill="none" stroke="#000000" cx="107.8441" cy="-362" rx="54.1144" ry="18"/>
<text text-anchor="middle" x="107.8441" y="-357.8" font-family="Times,serif" font-size="14.00" fill="#000000">selectorStart</text>
</g>
<!-- data&#45;&gt;selectorStart -->
<g id="edge1" class="edge">
<title>data&#45;&gt;selectorStart</title>
<path fill="none" stroke="#000000" d="M163.5457,-443.6177C145.1798,-439.0597 121.8637,-429.9462 109.7611,-412 105.4869,-405.6621 103.9247,-397.7732 103.715,-390.1487"/>
<polygon fill="#000000" stroke="#000000" points="107.2149,-390.2246 104.1398,-380.0859 100.2211,-389.9293 107.2149,-390.2246"/>
<text text-anchor="middle" x="142.8856" y="-400.8" font-family="Times,serif" font-size="14.00" fill="#000000">[letter] . # *</text>
</g>
<!-- selector -->
<g id="node3" class="node">
<title>selector</title>
<ellipse fill="none" stroke="#000000" cx="123.8441" cy="-276" rx="37.7092" ry="18"/>
<text text-anchor="middle" x="123.8441" y="-271.8" font-family="Times,serif" font-size="14.00" fill="#000000">selector</text>
</g>
<!-- selectorStart&#45;&gt;selector -->
<g id="edge2" class="edge">
<title>selectorStart&#45;&gt;selector</title>
<path fill="none" stroke="#000000" d="M91.357,-344.5316C84.3931,-334.9834 78.8948,-322.9115 83.7611,-312 86.0946,-306.7677 89.606,-301.9784 93.5981,-297.7196"/>
<polygon fill="#000000" stroke="#000000" points="96.2454,-300.0355 101.1524,-290.6455 91.4607,-294.926 96.2454,-300.0355"/>
<text text-anchor="middle" x="102.8856" y="-314.8" font-family="Times,serif" font-size="14.00" fill="#000000">[letter]</text>
</g>
<!-- selector&#45;&gt;selectorStart -->
<g id="edge3" class="edge">
<title>selector&#45;&gt;selectorStart</title>
<path fill="none" stroke="#000000" d="M124.551,-294.228C124.5618,-303.7822 124.0062,-315.6241 121.8441,-326 121.2542,-328.8311 120.4657,-331.73 119.5623,-334.5935"/>
<polygon fill="#000000" stroke="#000000" points="116.2549,-333.4481 116.1699,-344.0426 122.8431,-335.8135 116.2549,-333.4481"/>
<text text-anchor="middle" x="125.5941" y="-314.8" font-family="Times,serif" font-size="14.00" fill="#000000">,</text>
</g>
<!-- beforeDeclaration -->
<g id="node4" class="node">
<title>beforeDeclaration</title>
<ellipse fill="none" stroke="#000000" cx="124.8441" cy="-190" rx="73.874" ry="18"/>
<text text-anchor="middle" x="124.8441" y="-185.8" font-family="Times,serif" font-size="14.00" fill="#000000">beforeDeclaration</text>
</g>
<!-- selector&#45;&gt;beforeDeclaration -->
<g id="edge4" class="edge">
<title>selector&#45;&gt;beforeDeclaration</title>
<path fill="none" stroke="#000000" d="M124.0562,-257.7616C124.1888,-246.3597 124.3623,-231.4342 124.5128,-218.494"/>
<polygon fill="#000000" stroke="#000000" points="128.0157,-218.2522 124.6323,-208.2121 121.0162,-218.1707 128.0157,-218.2522"/>
<text text-anchor="middle" x="128.204" y="-228.8" font-family="Times,serif" font-size="14.00" fill="#000000">{</text>
</g>
<!-- beforeDeclaration&#45;&gt;data -->
<g id="edge6" class="edge">
<title>beforeDeclaration&#45;&gt;data</title>
<path fill="none" stroke="#000000" d="M140.4368,-207.6751C150.9333,-220.6587 164.0541,-239.2365 170.8441,-258 190.6081,-312.6155 192.2189,-381.4692 191.267,-419.4903"/>
<polygon fill="#000000" stroke="#000000" points="187.7584,-419.6946 190.9252,-429.805 194.7545,-419.9265 187.7584,-419.6946"/>
<text text-anchor="middle" x="190.204" y="-314.8" font-family="Times,serif" font-size="14.00" fill="#000000">}</text>
</g>
<!-- declarationProperty -->
<g id="node5" class="node">
<title>declarationProperty</title>
<ellipse fill="none" stroke="#000000" cx="79.8441" cy="-104" rx="79.6885" ry="18"/>
<text text-anchor="middle" x="79.8441" y="-99.8" font-family="Times,serif" font-size="14.00" fill="#000000">declarationProperty</text>
</g>
<!-- beforeDeclaration&#45;&gt;declarationProperty -->
<g id="edge5" class="edge">
<title>beforeDeclaration&#45;&gt;declarationProperty</title>
<path fill="none" stroke="#000000" d="M115.3008,-171.7616C109.1141,-159.9383 100.945,-144.3261 94.0074,-131.0676"/>
<polygon fill="#000000" stroke="#000000" points="96.9568,-129.1548 89.2194,-121.9172 90.7545,-132.4002 96.9568,-129.1548"/>
<text text-anchor="middle" x="124.8856" y="-142.8" font-family="Times,serif" font-size="14.00" fill="#000000">[letter]</text>
</g>
<!-- declarationValue -->
<g id="node6" class="node">
<title>declarationValue</title>
<ellipse fill="none" stroke="#000000" cx="195.8441" cy="-18" rx="69.5477" ry="18"/>
<text text-anchor="middle" x="195.8441" y="-13.8" font-family="Times,serif" font-size="14.00" fill="#000000">declarationValue</text>
</g>
<!-- declarationProperty&#45;&gt;declarationValue -->
<g id="edge7" class="edge">
<title>declarationProperty&#45;&gt;declarationValue</title>
<path fill="none" stroke="#000000" d="M103.3184,-86.5966C120.965,-73.5139 145.3155,-55.4608 164.6068,-41.1587"/>
<polygon fill="#000000" stroke="#000000" points="166.8519,-43.8512 172.8006,-35.084 162.683,-38.228 166.8519,-43.8512"/>
<text text-anchor="middle" x="146.7889" y="-56.8" font-family="Times,serif" font-size="14.00" fill="#000000">:</text>
</g>
<!-- declarationValue&#45;&gt;data -->
<g id="edge9" class="edge">
<title>declarationValue&#45;&gt;data</title>
<path fill="none" stroke="#000000" d="M206.8567,-36.0658C216.1132,-52.9891 227.8441,-79.3075 227.8441,-104 227.8441,-362 227.8441,-362 227.8441,-362 227.8441,-384.0362 217.2766,-406.747 207.2871,-423.2928"/>
<polygon fill="#000000" stroke="#000000" points="204.2846,-421.4917 201.8676,-431.8072 210.1899,-425.2505 204.2846,-421.4917"/>
<text text-anchor="middle" x="231.204" y="-228.8" font-family="Times,serif" font-size="14.00" fill="#000000">}</text>
</g>
<!-- declarationValue&#45;&gt;beforeDeclaration -->
<g id="edge8" class="edge">
<title>declarationValue&#45;&gt;beforeDeclaration</title>
<path fill="none" stroke="#000000" d="M192.9369,-36.2483C189.1423,-57.487 181.4554,-93.3106 168.8441,-122 162.4239,-136.6054 153.0516,-151.6218 144.6051,-163.8158"/>
<polygon fill="#000000" stroke="#000000" points="141.6207,-161.9732 138.6739,-172.15 147.3238,-166.032 141.6207,-161.9732"/>
<text text-anchor="middle" x="183.7889" y="-99.8" font-family="Times,serif" font-size="14.00" fill="#000000">;</text>
</g>
</g>
</svg>
