<?xml version="1.0" encoding="UTF-8" standalone="no"?>
<!DOCTYPE svg PUBLIC "-//W3C//DTD SVG 1.1//EN"
 "http://www.w3.org/Graphics/SVG/1.1/DTD/svg11.dtd">
<!-- Generated by graphviz version 2.40.1 (20161225.0304)
 -->
<!-- Title: lexicalParser Pages: 1 -->
<svg width="1060pt" height="646pt"
 viewBox="0.00 0.00 1060.08 646.00" xmlns="http://www.w3.org/2000/svg" xmlns:xlink="http://www.w3.org/1999/xlink">
<g id="graph0" class="graph" transform="scale(1 1) rotate(0) translate(4 642)">
<title>lexicalParser</title>
<polygon fill="#ffffff" stroke="transparent" points="-4,4 -4,-642 1056.0813,-642 1056.0813,4 -4,4"/>
<!-- data -->
<g id="node1" class="node">
<title>data</title>
<ellipse fill="#c1b2ff" stroke="#c1b2ff" cx="413.1223" cy="-620" rx="27" ry="18"/>
<text text-anchor="middle" x="413.1223" y="-615.8" font-family="Times,serif" font-size="14.00" fill="#000000">data</text>
</g>
<!-- tagOpen -->
<g id="node2" class="node">
<title>tagOpen</title>
<ellipse fill="none" stroke="#000000" cx="332.1223" cy="-448" rx="40.1317" ry="18"/>
<text text-anchor="middle" x="332.1223" y="-443.8" font-family="Times,serif" font-size="14.00" fill="#000000">tagOpen</text>
</g>
<!-- data&#45;&gt;tagOpen -->
<g id="edge1" class="edge">
<title>data&#45;&gt;tagOpen</title>
<path fill="none" stroke="#000000" d="M393.4608,-607.5617C376.4201,-595.5898 352.7417,-575.8207 341.2268,-552 329.8226,-528.4083 328.3955,-498.2939 329.3138,-476.5483"/>
<polygon fill="#000000" stroke="#000000" points="332.8226,-476.511 329.9432,-466.315 325.8358,-476.0812 332.8226,-476.511"/>
<text text-anchor="middle" x="346.07" y="-529.8" font-family="Times,serif" font-size="14.00" fill="#000000">&lt;</text>
</g>
<!-- text -->
<g id="node3" class="node">
<title>text</title>
<ellipse fill="none" stroke="#000000" cx="385.1223" cy="-534" rx="27" ry="18"/>
<text text-anchor="middle" x="385.1223" y="-529.8" font-family="Times,serif" font-size="14.00" fill="#000000">text</text>
</g>
<!-- data&#45;&gt;text -->
<g id="edge2" class="edge">
<title>data&#45;&gt;text</title>
<path fill="none" stroke="#000000" d="M399.3084,-604.2066C394.9049,-598.2657 390.5322,-591.198 388.0393,-584 385.6685,-577.1546 384.5318,-569.4692 384.0772,-562.2156"/>
<polygon fill="#000000" stroke="#000000" points="387.5721,-561.9588 383.8347,-552.0451 380.5741,-562.1257 387.5721,-561.9588"/>
<text text-anchor="middle" x="406.1638" y="-572.8" font-family="Times,serif" font-size="14.00" fill="#000000">[letter]</text>
</g>
<!-- endTagOpen -->
<g id="node4" class="node">
<title>endTagOpen</title>
<ellipse fill="none" stroke="#000000" cx="111.1223" cy="-362" rx="55.3242" ry="18"/>
<text text-anchor="middle" x="111.1223" y="-357.8" font-family="Times,serif" font-size="14.00" fill="#000000">endTagOpen</text>
</g>
<!-- tagOpen&#45;&gt;endTagOpen -->
<g id="edge4" class="edge">
<title>tagOpen&#45;&gt;endTagOpen</title>
<path fill="none" stroke="#000000" d="M301.3932,-436.0421C263.683,-421.3675 199.4322,-396.365 156.1471,-379.521"/>
<polygon fill="#000000" stroke="#000000" points="157.295,-376.212 146.7064,-375.8472 154.7564,-382.7355 157.295,-376.212"/>
<text text-anchor="middle" x="237.0671" y="-400.8" font-family="Times,serif" font-size="14.00" fill="#000000">/</text>
</g>
<!-- markupDeclarationOpen -->
<g id="node5" class="node">
<title>markupDeclarationOpen</title>
<ellipse fill="none" stroke="#000000" cx="282.1223" cy="-362" rx="97.5448" ry="18"/>
<text text-anchor="middle" x="282.1223" y="-357.8" font-family="Times,serif" font-size="14.00" fill="#000000">markupDeclarationOpen</text>
</g>
<!-- tagOpen&#45;&gt;markupDeclarationOpen -->
<g id="edge5" class="edge">
<title>tagOpen&#45;&gt;markupDeclarationOpen</title>
<path fill="none" stroke="#000000" d="M321.7622,-430.1807C314.8365,-418.2684 305.5962,-402.3752 297.7794,-388.9302"/>
<polygon fill="#000000" stroke="#000000" points="300.6931,-386.9782 292.6411,-380.0923 294.6415,-390.4966 300.6931,-386.9782"/>
<text text-anchor="middle" x="312.4533" y="-400.8" font-family="Times,serif" font-size="14.00" fill="#000000">!</text>
</g>
<!-- tagName -->
<g id="node6" class="node">
<title>tagName</title>
<ellipse fill="none" stroke="#000000" cx="440.1223" cy="-362" rx="42.0524" ry="18"/>
<text text-anchor="middle" x="440.1223" y="-357.8" font-family="Times,serif" font-size="14.00" fill="#000000">tagName</text>
</g>
<!-- tagOpen&#45;&gt;tagName -->
<g id="edge6" class="edge">
<title>tagOpen&#45;&gt;tagName</title>
<path fill="none" stroke="#000000" d="M349.2658,-431.6584C360.0908,-421.598 374.5354,-408.637 388.0393,-398 394.4749,-392.9306 401.5779,-387.7616 408.4141,-382.9807"/>
<polygon fill="#000000" stroke="#000000" points="410.6061,-385.721 416.8603,-377.1691 406.6381,-379.9542 410.6061,-385.721"/>
<text text-anchor="middle" x="406.1638" y="-400.8" font-family="Times,serif" font-size="14.00" fill="#000000">[letter]</text>
</g>
<!-- text&#45;&gt;tagOpen -->
<g id="edge3" class="edge">
<title>text&#45;&gt;tagOpen</title>
<path fill="none" stroke="#000000" d="M374.6512,-517.0092C367.1281,-504.802 356.8444,-488.1151 348.2739,-474.2083"/>
<polygon fill="#000000" stroke="#000000" points="351.1617,-472.2229 342.9355,-465.546 345.2024,-475.8955 351.1617,-472.2229"/>
<text text-anchor="middle" x="366.07" y="-486.8" font-family="Times,serif" font-size="14.00" fill="#000000">&lt;</text>
</g>
<!-- endTagName -->
<g id="node9" class="node">
<title>endTagName</title>
<ellipse fill="none" stroke="#000000" cx="57.1223" cy="-276" rx="57.2448" ry="18"/>
<text text-anchor="middle" x="57.1223" y="-271.8" font-family="Times,serif" font-size="14.00" fill="#000000">endTagName</text>
</g>
<!-- endTagOpen&#45;&gt;endTagName -->
<g id="edge10" class="edge">
<title>endTagOpen&#45;&gt;endTagName</title>
<path fill="none" stroke="#000000" d="M99.9334,-344.1807C92.331,-332.0732 82.1463,-315.8531 73.6181,-302.2711"/>
<polygon fill="#000000" stroke="#000000" points="76.5786,-300.4041 68.2968,-293.7964 70.6504,-304.1265 76.5786,-300.4041"/>
<text text-anchor="middle" x="107.1638" y="-314.8" font-family="Times,serif" font-size="14.00" fill="#000000">[letter]</text>
</g>
<!-- tagName&#45;&gt;data -->
<g id="edge8" class="edge">
<title>tagName&#45;&gt;data</title>
<path fill="none" stroke="#000000" d="M440.6991,-380.0703C441.543,-418.2018 441.5913,-509.5114 426.1223,-584 425.5269,-586.8668 424.7514,-589.8132 423.8753,-592.727"/>
<polygon fill="#000000" stroke="#000000" points="420.5112,-591.7499 420.6254,-602.3441 427.1427,-593.9909 420.5112,-591.7499"/>
<text text-anchor="middle" x="442.07" y="-486.8" font-family="Times,serif" font-size="14.00" fill="#000000">&gt;</text>
</g>
<!-- selfClosingTag -->
<g id="node7" class="node">
<title>selfClosingTag</title>
<ellipse fill="none" stroke="#000000" cx="511.1223" cy="-104" rx="63.552" ry="18"/>
<text text-anchor="middle" x="511.1223" y="-99.8" font-family="Times,serif" font-size="14.00" fill="#000000">selfClosingTag</text>
</g>
<!-- tagName&#45;&gt;selfClosingTag -->
<g id="edge7" class="edge">
<title>tagName&#45;&gt;selfClosingTag</title>
<path fill="none" stroke="#000000" d="M445.1149,-343.8579C457.3363,-299.4476 488.8215,-185.0365 503.4459,-131.8946"/>
<polygon fill="#000000" stroke="#000000" points="506.8564,-132.6923 506.1352,-122.122 500.1073,-130.8349 506.8564,-132.6923"/>
<text text-anchor="middle" x="479.0671" y="-228.8" font-family="Times,serif" font-size="14.00" fill="#000000">/</text>
</g>
<!-- beforeAttributeName -->
<g id="node8" class="node">
<title>beforeAttributeName</title>
<ellipse fill="none" stroke="#000000" cx="639.1223" cy="-276" rx="85.9686" ry="18"/>
<text text-anchor="middle" x="639.1223" y="-271.8" font-family="Times,serif" font-size="14.00" fill="#000000">beforeAttributeName</text>
</g>
<!-- tagName&#45;&gt;beforeAttributeName -->
<g id="edge9" class="edge">
<title>tagName&#45;&gt;beforeAttributeName</title>
<path fill="none" stroke="#000000" d="M460.143,-345.9354C474.4815,-335.0854 494.6314,-321.1292 514.1633,-312 531.5869,-303.8562 551.252,-297.146 569.7372,-291.8169"/>
<polygon fill="#000000" stroke="#000000" points="570.8761,-295.133 579.5697,-289.0772 568.9972,-288.3899 570.8761,-295.133"/>
<text text-anchor="middle" x="552.6018" y="-314.8" font-family="Times,serif" font-size="14.00" fill="#000000">[WhiteSpace]</text>
</g>
<!-- selfClosingTag&#45;&gt;data -->
<g id="edge12" class="edge">
<title>selfClosingTag&#45;&gt;data</title>
<path fill="none" stroke="#000000" d="M515.7841,-121.9814C519.8567,-139.2854 525.1223,-166.2505 525.1223,-190 525.1223,-534 525.1223,-534 525.1223,-534 525.1223,-573.4354 480.901,-597.2674 448.032,-609.5346"/>
<polygon fill="#000000" stroke="#000000" points="446.5281,-606.3534 438.2573,-612.9749 448.8521,-612.9564 446.5281,-606.3534"/>
<text text-anchor="middle" x="529.07" y="-357.8" font-family="Times,serif" font-size="14.00" fill="#000000">&gt;</text>
</g>
<!-- beforeAttributeName&#45;&gt;data -->
<g id="edge13" class="edge">
<title>beforeAttributeName&#45;&gt;data</title>
<path fill="none" stroke="#000000" d="M627.4214,-293.9758C617.5864,-310.837 605.1223,-337.1147 605.1223,-362 605.1223,-534 605.1223,-534 605.1223,-534 605.1223,-570.8004 572.043,-567.5533 539.1223,-584 510.6813,-598.2087 475.7447,-607.6324 449.8792,-613.2612"/>
<polygon fill="#000000" stroke="#000000" points="448.8205,-609.9066 439.7455,-615.3742 450.2494,-616.7592 448.8205,-609.9066"/>
<text text-anchor="middle" x="609.07" y="-443.8" font-family="Times,serif" font-size="14.00" fill="#000000">&gt;</text>
</g>
<!-- beforeAttributeName&#45;&gt;selfClosingTag -->
<g id="edge14" class="edge">
<title>beforeAttributeName&#45;&gt;selfClosingTag</title>
<path fill="none" stroke="#000000" d="M625.6176,-258.0888C621.2911,-252.3252 616.4905,-245.9033 612.1223,-240 579.3913,-195.7661 572.2399,-183.9451 539.1223,-140 536.6726,-136.7494 534.0777,-133.3527 531.4947,-129.9996"/>
<polygon fill="#000000" stroke="#000000" points="534.0803,-127.6222 525.1878,-121.8624 528.5476,-131.9105 534.0803,-127.6222"/>
<text text-anchor="middle" x="590.0671" y="-185.8" font-family="Times,serif" font-size="14.00" fill="#000000">/</text>
</g>
<!-- attributeName -->
<g id="node10" class="node">
<title>attributeName</title>
<ellipse fill="none" stroke="#000000" cx="677.1223" cy="-190" rx="60.8786" ry="18"/>
<text text-anchor="middle" x="677.1223" y="-185.8" font-family="Times,serif" font-size="14.00" fill="#000000">attributeName</text>
</g>
<!-- beforeAttributeName&#45;&gt;attributeName -->
<g id="edge15" class="edge">
<title>beforeAttributeName&#45;&gt;attributeName</title>
<path fill="none" stroke="#000000" d="M679.6863,-260.0704C687.8454,-254.9252 695.3662,-248.3295 700.1223,-240 704.413,-232.4855 702.7896,-224.0304 698.8995,-216.2406"/>
<polygon fill="#000000" stroke="#000000" points="701.737,-214.1737 693.5101,-207.4978 695.7782,-217.847 701.737,-214.1737"/>
<text text-anchor="middle" x="721.1638" y="-228.8" font-family="Times,serif" font-size="14.00" fill="#000000">[letter]</text>
</g>
<!-- endTagName&#45;&gt;data -->
<g id="edge11" class="edge">
<title>endTagName&#45;&gt;data</title>
<path fill="none" stroke="#000000" d="M47.3042,-293.8637C38.8911,-310.8616 28.1223,-337.4197 28.1223,-362 28.1223,-534 28.1223,-534 28.1223,-534 28.1223,-569.4407 279.8213,-603.7934 376.1936,-615.6478"/>
<polygon fill="#000000" stroke="#000000" points="376.0058,-619.1507 386.3555,-616.8849 376.8518,-612.202 376.0058,-619.1507"/>
<text text-anchor="middle" x="32.07" y="-443.8" font-family="Times,serif" font-size="14.00" fill="#000000">&gt;</text>
</g>
<!-- attributeName&#45;&gt;selfClosingTag -->
<g id="edge17" class="edge">
<title>attributeName&#45;&gt;selfClosingTag</title>
<path fill="none" stroke="#000000" d="M651.8271,-173.5604C635.6376,-163.342 614.0117,-150.2467 594.1223,-140 582.4437,-133.9835 569.5365,-128.0555 557.45,-122.8005"/>
<polygon fill="#000000" stroke="#000000" points="558.5425,-119.4609 547.9721,-118.7415 555.7867,-125.8957 558.5425,-119.4609"/>
<text text-anchor="middle" x="619.0671" y="-142.8" font-family="Times,serif" font-size="14.00" fill="#000000">/</text>
</g>
<!-- attributeName&#45;&gt;beforeAttributeName -->
<g id="edge19" class="edge">
<title>attributeName&#45;&gt;beforeAttributeName</title>
<path fill="none" stroke="#000000" d="M641.2432,-204.5772C632.4698,-209.9507 624.1716,-216.9934 619.1633,-226 615.1589,-233.2011 616.2793,-241.3719 619.4697,-248.9906"/>
<polygon fill="#000000" stroke="#000000" points="616.4154,-250.7019 624.1826,-257.9075 622.6041,-247.4309 616.4154,-250.7019"/>
<text text-anchor="middle" x="657.6018" y="-228.8" font-family="Times,serif" font-size="14.00" fill="#000000">[WhiteSpace]</text>
</g>
<!-- databeforeAttributeName -->
<g id="node11" class="node">
<title>databeforeAttributeName</title>
<ellipse fill="none" stroke="#000000" cx="880.1223" cy="-104" rx="100.4261" ry="18"/>
<text text-anchor="middle" x="880.1223" y="-99.8" font-family="Times,serif" font-size="14.00" fill="#000000">databeforeAttributeName</text>
</g>
<!-- attributeName&#45;&gt;databeforeAttributeName -->
<g id="edge16" class="edge">
<title>attributeName&#45;&gt;databeforeAttributeName</title>
<path fill="none" stroke="#000000" d="M712.0192,-175.2161C744.9027,-161.2851 794.4845,-140.28 831.2883,-124.6883"/>
<polygon fill="#000000" stroke="#000000" points="832.9852,-127.7706 840.8277,-120.647 830.2546,-121.3251 832.9852,-127.7706"/>
<text text-anchor="middle" x="794.07" y="-142.8" font-family="Times,serif" font-size="14.00" fill="#000000">&gt;</text>
</g>
<!-- beforeAttributeValue -->
<g id="node12" class="node">
<title>beforeAttributeValue</title>
<ellipse fill="none" stroke="#000000" cx="677.1223" cy="-104" rx="84.5083" ry="18"/>
<text text-anchor="middle" x="677.1223" y="-99.8" font-family="Times,serif" font-size="14.00" fill="#000000">beforeAttributeValue</text>
</g>
<!-- attributeName&#45;&gt;beforeAttributeValue -->
<g id="edge18" class="edge">
<title>attributeName&#45;&gt;beforeAttributeValue</title>
<path fill="none" stroke="#000000" d="M677.1223,-171.7616C677.1223,-160.3597 677.1223,-145.4342 677.1223,-132.494"/>
<polygon fill="#000000" stroke="#000000" points="680.6224,-132.2121 677.1223,-122.2121 673.6224,-132.2121 680.6224,-132.2121"/>
<text text-anchor="middle" x="681.07" y="-142.8" font-family="Times,serif" font-size="14.00" fill="#000000">=</text>
</g>
<!-- attributeValue -->
<g id="node13" class="node">
<title>attributeValue</title>
<ellipse fill="none" stroke="#000000" cx="842.1223" cy="-18" rx="59.9184" ry="18"/>
<text text-anchor="middle" x="842.1223" y="-13.8" font-family="Times,serif" font-size="14.00" fill="#000000">attributeValue</text>
</g>
<!-- beforeAttributeValue&#45;&gt;attributeValue -->
<g id="edge20" class="edge">
<title>beforeAttributeValue&#45;&gt;attributeValue</title>
<path fill="none" stroke="#000000" d="M709.3276,-87.2142C736.2389,-73.1877 774.6957,-53.1436 803.3043,-38.2324"/>
<polygon fill="#000000" stroke="#000000" points="804.9696,-41.3114 812.2196,-33.5856 801.7341,-35.104 804.9696,-41.3114"/>
<text text-anchor="middle" x="788.1638" y="-56.8" font-family="Times,serif" font-size="14.00" fill="#000000">[letter]</text>
</g>
<!-- attributeValue&#45;&gt;beforeAttributeName -->
<g id="edge21" class="edge">
<title>attributeValue&#45;&gt;beforeAttributeName</title>
<path fill="none" stroke="#000000" d="M888.4565,-29.5376C941.5373,-45.1739 1017.729,-76.4703 989.1223,-122 932.2754,-212.476 808.553,-250.0586 724.5217,-265.4937"/>
<polygon fill="#000000" stroke="#000000" points="723.7164,-262.0817 714.4779,-267.2683 724.9344,-268.9749 723.7164,-262.0817"/>
<text text-anchor="middle" x="1013.6018" y="-142.8" font-family="Times,serif" font-size="14.00" fill="#000000">[WhiteSpace]</text>
</g>
</g>
</svg>
